<svg width="168" height="40" viewBox="0 0 168 40" fill="none" xmlns="http://www.w3.org/2000/svg">
<path d="M31.9113 0H15.8624C14.8178 0 13.816 0.423101 13.0774 1.17622C12.3388 1.92935 11.9239 2.9508 11.9239 4.01588C11.9239 5.08096 12.3388 6.10241 13.0774 6.85554C13.816 7.60866 14.8178 8.03176 15.8624 8.03176H31.9113C32.9558 8.03176 33.9576 7.60866 34.6962 6.85554C35.4348 6.10241 35.8497 5.08096 35.8497 4.01588C35.8497 2.9508 35.4348 1.92935 34.6962 1.17622C33.9576 0.423101 32.9558 0 31.9113 0Z" fill="#F5F5F5"/>
<path d="M3.88182 0.212647C3.12258 0.212305 2.38029 0.44156 1.74884 0.871415C1.11739 1.30127 0.62514 1.91242 0.334357 2.62756C0.0435749 3.34269 -0.0326781 4.1297 0.115237 4.88903C0.263153 5.64837 0.628599 6.34592 1.16535 6.89346C1.7021 7.441 2.38604 7.81393 3.13067 7.96509C3.8753 8.11624 4.64717 8.03884 5.34865 7.74266C6.05013 7.44647 6.64971 6.94482 7.07156 6.30115C7.49341 5.65748 7.71857 4.9007 7.71857 4.12653C7.71857 3.0888 7.3144 2.09356 6.59492 1.35961C5.87544 0.625663 4.89955 0.213105 3.88182 0.212647Z" fill="#F5F5F5"/>
<path d="M76.3866 4.40456C76.3877 3.8543 76.2769 3.30979 76.0611 2.80546C75.7937 2.04714 75.3033 1.39146 74.6568 0.927947C74.0103 0.464437 73.2392 0.215698 72.4489 0.215698C71.6586 0.215698 70.8876 0.464437 70.2411 0.927947C69.5946 1.39146 69.1042 2.04714 68.8368 2.80546C68.621 3.30979 68.5101 3.8543 68.5113 4.40456V25.312C68.5113 25.338 68.4622 28.078 66.7176 29.8915C65.4613 31.2002 63.4725 31.8657 60.8073 31.8657H60.787C53.8357 31.8657 53.0847 27.25 53.083 25.312V4.40456C53.0834 3.85364 52.972 3.30858 52.7557 2.80373C52.488 2.046 51.9976 1.39093 51.3513 0.927886C50.705 0.464841 49.9344 0.216371 49.1445 0.216371C48.3546 0.216371 47.584 0.464841 46.9377 0.927886C46.2914 1.39093 45.801 2.046 45.5332 2.80373C45.317 3.30919 45.2055 3.85481 45.206 4.40628V25.1893C45.1958 26.0537 45.2993 31.392 49.2428 35.5047C52.0369 38.4194 55.9211 39.8975 60.787 39.8975H60.8073C65.6732 39.8975 69.5574 38.4194 72.3515 35.5047C76.2933 31.392 76.3967 26.0468 76.3866 25.1893V4.40456Z" fill="#F5F5F5"/>
<path d="M3.88182 16.0884C3.12258 16.088 2.38029 16.3173 1.74884 16.7471C1.11739 17.177 0.62514 17.7881 0.334357 18.5033C0.0435749 19.2184 -0.0326781 20.0054 0.115237 20.7648C0.263153 21.5241 0.628599 22.2217 1.16535 22.7692C1.7021 23.3167 2.38604 23.6897 3.13067 23.8408C3.8753 23.992 4.64717 23.9146 5.34865 23.6184C6.05013 23.3222 6.64971 22.8206 7.07156 22.1769C7.49341 21.5332 7.71857 20.7764 7.71857 20.0023C7.71857 18.9645 7.3144 17.9693 6.59492 17.2353C5.87544 16.5014 4.89955 16.0888 3.88182 16.0884Z" fill="#F5F5F5"/>
<path d="M3.88182 31.9658C3.12258 31.9655 2.38029 32.1947 1.74884 32.6246C1.11739 33.0544 0.62514 33.6656 0.334357 34.3807C0.0435749 35.0959 -0.0326781 35.8829 0.115237 36.6422C0.263153 37.4015 0.628599 38.0991 1.16535 38.6466C1.7021 39.1942 2.38604 39.5671 3.13067 39.7183C3.8753 39.8694 4.64717 39.792 5.34865 39.4958C6.05013 39.1996 6.64971 38.698 7.07156 38.0543C7.49341 37.4107 7.71857 36.6539 7.71857 35.8797C7.71857 34.842 7.3144 33.8467 6.59492 33.1128C5.87544 32.3788 4.89955 31.9663 3.88182 31.9658Z" fill="#F5F5F5"/>
<path d="M23.763 16.0261H15.8624C14.8178 16.0261 13.816 16.4492 13.0774 17.2023C12.3388 17.9555 11.9239 18.9769 11.9239 20.042C11.9239 21.1071 12.3388 22.1285 13.0774 22.8817C13.816 23.6348 14.8178 24.0579 15.8624 24.0579H23.763C24.8076 24.0579 25.8094 23.6348 26.548 22.8817C27.2866 22.1285 27.7015 21.1071 27.7015 20.042C27.7015 18.9769 27.2866 17.9555 26.548 17.2023C25.8094 16.4492 24.8076 16.0261 23.763 16.0261Z" fill="#F5F5F5"/>
<path d="M119.425 0.214699C118.742 0.214697 118.072 0.400553 117.483 0.753078C116.894 1.1056 116.408 1.61202 116.075 2.22005C115.69 2.85416 115.487 3.58515 115.487 4.33085V25.0845L97.1763 1.6098C96.6559 0.940956 95.9399 0.458793 95.1323 0.233409C94.3248 0.00802504 93.4677 0.0511718 92.6858 0.356576C91.904 0.66198 91.238 1.21372 90.7848 1.93158C90.3315 2.64943 90.1147 3.49598 90.1657 4.34814V35.9375C90.1657 37.0026 90.5807 38.0241 91.3193 38.7772C92.0579 39.5303 93.0597 39.9534 94.1042 39.9534C95.1488 39.9534 96.1505 39.5303 96.8891 38.7772C97.6277 38.0241 98.0427 37.0026 98.0427 35.9375V15.623L115.78 38.363C116.314 39.0463 117.038 39.5496 117.857 39.8071C118.676 40.0645 119.552 40.0643 120.371 39.8063C121.19 39.5483 121.914 39.0446 122.448 38.361C122.981 37.6773 123.301 36.8454 123.364 35.9739V4.33776C123.365 3.5935 123.162 2.86367 122.779 2.23042C122.447 1.61995 121.961 1.11111 121.371 0.756673C120.782 0.402237 120.11 0.21511 119.425 0.214699Z" fill="#F5F5F5"/>
<path d="M163.27 31.8703H144.895V24.0253H160.849C161.894 24.0253 162.895 23.6022 163.634 22.8491C164.373 22.0959 164.788 21.0745 164.788 20.0094C164.788 18.9443 164.373 17.9229 163.634 17.1697C162.895 16.4166 161.894 15.9935 160.849 15.9935H144.895V8.14846H163.27C164.315 8.14846 165.316 7.72536 166.055 6.97224C166.794 6.21911 167.209 5.19766 167.209 4.13258C167.209 3.0675 166.794 2.04605 166.055 1.29292C165.316 0.5398 164.315 0.116699 163.27 0.116699H140.957C139.946 0.116744 138.974 0.5128 138.242 1.22295C137.51 1.93309 137.074 2.903 137.023 3.93204C137.023 3.99889 137.023 4.06804 137.023 4.1395V35.8931C137.023 36.4205 137.125 36.9427 137.323 37.43C137.521 37.9172 137.811 38.3599 138.177 38.7328C138.543 39.1057 138.977 39.4015 139.455 39.6033C139.932 39.8051 140.445 39.909 140.962 39.909H163.275C164.32 39.909 165.322 39.4859 166.06 38.7328C166.799 37.9797 167.214 36.9582 167.214 35.8931C167.214 34.8281 166.799 33.8066 166.06 33.0535C165.322 32.3004 164.32 31.8773 163.275 31.8773L163.27 31.8703Z" fill="#F5F5F5"/>
</svg>
